<?xml version="1.0" encoding="UTF-8" standalone="no"?>
<!-- Created with Inkscape (http://www.inkscape.org/) -->

<svg
   xmlns:dc="http://purl.org/dc/elements/1.1/"
   xmlns:cc="http://creativecommons.org/ns#"
   xmlns:rdf="http://www.w3.org/1999/02/22-rdf-syntax-ns#"
   xmlns:svg="http://www.w3.org/2000/svg"
   xmlns="http://www.w3.org/2000/svg"
   xmlns:sodipodi="http://sodipodi.sourceforge.net/DTD/sodipodi-0.dtd"
   xmlns:inkscape="http://www.inkscape.org/namespaces/inkscape"
   width="100mm"
   height="130mm"
   id="svg2"
   version="1.1"
   inkscape:version="0.91 r13725"
   sodipodi:docname="de.svg">
  <defs
     id="defs4" />
  <sodipodi:namedview
     id="base"
     pagecolor="#ffffff"
     bordercolor="#666666"
     borderopacity="1.0"
     inkscape:pageopacity="0.0"
     inkscape:pageshadow="2"
     inkscape:zoom="0.60423569"
     inkscape:cx="-23.0134"
     inkscape:cy="-243.76806"
     inkscape:document-units="px"
     inkscape:current-layer="layer1"
     showgrid="false"
     inkscape:window-width="1920"
     inkscape:window-height="1098"
     inkscape:window-x="0"
     inkscape:window-y="0"
     inkscape:window-maximized="1" />
  <metadata
     id="metadata7">
    <rdf:RDF>
      <cc:Work
         rdf:about="">
        <dc:format>image/svg+xml</dc:format>
        <dc:type
           rdf:resource="http://purl.org/dc/dcmitype/StillImage" />
        <dc:title />
      </cc:Work>
    </rdf:RDF>
  </metadata>
  <g
     inkscape:label="Calque 1"
     inkscape:groupmode="layer"
     id="layer1">
    <path
       style="fill:#ffffff;fill-opacity:1;stroke:#000000;stroke-width:1.14696026;stroke-miterlimit:4;stroke-dasharray:none;stroke-dashoffset:0;stroke-opacity:1"
       d="m 228.68744,437.1419 c -34.40881,0 -68.81762,0 -103.22643,0 0,-34.40882 0,-68.81763 0,-103.22645 34.40881,0 68.81762,0 103.22643,0 0,34.40882 0,68.81763 0,103.22645 z"
       id="de1"
       inkscape:connector-curvature="0" />
    <path
       style="fill:#ffffff;fill-opacity:1;stroke:#000000;stroke-width:1.14696026;stroke-miterlimit:4;stroke-dasharray:none;stroke-dashoffset:0;stroke-opacity:1"
       d="m 228.68744,333.6915 c -34.40881,0 -68.81762,0 -103.22643,0 0,-34.40881 0,-68.81762 0,-103.22643 34.40881,0 68.81762,0 103.22643,0 0,34.40881 0,68.81762 0,103.22643 z"
       id="de2"
       inkscape:connector-curvature="0" />
    <path
       style="fill:#ffffff;fill-opacity:1;stroke:#000000;stroke-width:1.14696026;stroke-miterlimit:4;stroke-dasharray:none;stroke-dashoffset:0;stroke-opacity:1"
       d="m 228.89352,230.3328 c -34.40881,0 -68.81762,0 -103.22643,0 0,-34.40881 0,-68.81762 0,-103.22643 34.40881,0 68.81762,0 103.22643,0 0,34.40881 0,68.81762 0,103.22643 z"
       id="de4"
       inkscape:connector-curvature="0" />
    <path
       style="fill:#ffffff;fill-opacity:1;stroke:#000000;stroke-width:1.14696026;stroke-miterlimit:4;stroke-dasharray:none;stroke-dashoffset:0;stroke-opacity:1"
       d="m 228.89352,126.98581 c -34.40881,0 -68.81762,0 -103.22643,0 0,-34.408812 0,-68.817622 0,-103.226432 34.40881,0 68.81762,0 103.22643,0 0,34.40881 0,68.81762 0,103.226432 z"
       id="de6"
       inkscape:connector-curvature="0" />
    <path
       style="fill:#ffffff;fill-opacity:1;stroke:#000000;stroke-width:1.14696026;stroke-miterlimit:4;stroke-dasharray:none;stroke-dashoffset:0;stroke-opacity:1"
       d="m 125.66709,230.3328 c -34.40881,0 -68.817621,0 -103.226431,0 0,-34.40881 0,-68.81762 0,-103.22643 34.40881,0 68.817621,0 103.226431,0 0,34.40881 0,68.81762 0,103.22643 z"
       id="de5"
       inkscape:connector-curvature="0" />
    <path
       style="fill:#ffffff;fill-opacity:1;stroke:#000000;stroke-width:1.14696026;stroke-miterlimit:4;stroke-dasharray:none;stroke-dashoffset:0;stroke-opacity:1"
       d="m 332.11993,230.3328 c -34.40881,0 -68.81762,0 -103.22643,0 0,-34.40881 0,-68.81762 0,-103.22643 34.40881,0 68.81762,0 103.22643,0 0,34.40881 0,68.81762 0,103.22643 z"
       id="de3"
       inkscape:connector-curvature="0" />
    <path
       style="fill:none;fill-rule:evenodd;stroke:#000000;stroke-width:0.57348013px;stroke-linecap:butt;stroke-linejoin:miter;stroke-opacity:1"
       d="m 228.92243,437.4449 c -4.21273,12.3036 -15.78491,11.0647 -26.22991,10.6511 -23.17916,0 -46.35832,0 -69.53748,0 -2.65477,-3.5698 -5.30958,-7.1395 -7.96435,-10.7093"
       id="path4167"
       inkscape:connector-curvature="0" />
    <path
       style="fill:none;fill-rule:evenodd;stroke:#000000;stroke-width:0.56913787px;stroke-linecap:butt;stroke-linejoin:miter;stroke-opacity:1"
       d="m 229.07331,333.11519 c 12.36113,-4.10725 11.05018,-15.69322 10.65456,-26.10875 0,-22.72775 0,-45.45551 0,-68.18326 -3.57094,-2.61388 -7.14189,-5.22776 -10.71283,-7.84164"
       id="path4169"
       inkscape:connector-curvature="0" />
    <path
       style="fill:none;fill-rule:evenodd;stroke:#000000;stroke-width:0.56897634px;stroke-linecap:butt;stroke-linejoin:miter;stroke-opacity:1"
       d="m 124.99362,332.99663 c -12.36326,-4.10334 -11.04964,-15.68983 -10.65469,-26.10427 0,-22.71103 0,-45.42207 0,-68.1331 3.57099,-2.61237 7.14198,-5.22473 10.71297,-7.8371"
       id="path4171"
       inkscape:connector-curvature="0" />
    <path
       style="fill:none;fill-rule:evenodd;stroke:#000000;stroke-width:0.57032549px;stroke-linecap:butt;stroke-linejoin:miter;stroke-opacity:1"
       d="m 229.48901,126.42405 c 12.34544,-4.1361 11.05414,-15.71824 10.65362,-26.14178 0,-22.850842 0,-45.701692 0,-68.552532 -3.57063,-2.62504 -7.14125,-5.25007 -10.71188,-7.87511"
       id="path4173"
       inkscape:connector-curvature="0" />
    <path
       style="fill:none;fill-rule:evenodd;stroke:#000000;stroke-width:0.57064182px;stroke-linecap:butt;stroke-linejoin:miter;stroke-opacity:1"
       d="m 125.17091,126.42393 c -12.34126,-4.1438 -11.0552,-15.72492 -10.65337,-26.15061 0,-22.883682 0,-45.767352 0,-68.651032 3.57055,-2.62801 7.14109,-5.25602 10.71164,-7.88403"
       id="path4175"
       inkscape:connector-curvature="0" />
    <path
       style="fill:none;fill-rule:evenodd;stroke:#000000;stroke-width:0.57348388px;stroke-linecap:butt;stroke-linejoin:miter;stroke-opacity:1"
       d="m 332.42217,230.58784 c 12.30356,-4.21283 11.06467,-15.785 10.65109,-26.23003 0,-23.17956 0,-46.35911 0,-69.53867 -3.56978,-2.65482 -7.13957,-5.30963 -10.70935,-7.96445"
       id="path4177"
       inkscape:connector-curvature="0" />
    <path
       style="fill:none;fill-rule:evenodd;stroke:#000000;stroke-width:0.57348388px;stroke-linecap:butt;stroke-linejoin:miter;stroke-opacity:1"
       d="m 22.149424,230.58784 c -12.3035693,-4.21282 -11.064693,-15.785 -10.65111,-26.23003 0,-23.17956 0,-46.35911 0,-69.53867 3.569787,-2.65482 7.139573,-5.30963 10.70936,-7.96445"
       id="path4179"
       inkscape:connector-curvature="0" />
  </g>
</svg>
