<?xml version="1.0" encoding="UTF-8" standalone="no"?>
<svg
   xmlns:dc="http://purl.org/dc/elements/1.1/"
   xmlns:cc="http://creativecommons.org/ns#"
   xmlns:rdf="http://www.w3.org/1999/02/22-rdf-syntax-ns#"
   xmlns:svg="http://www.w3.org/2000/svg"
   xmlns="http://www.w3.org/2000/svg"
   xmlns:sodipodi="http://sodipodi.sourceforge.net/DTD/sodipodi-0.dtd"
   xmlns:inkscape="http://www.inkscape.org/namespaces/inkscape"
   xml:space="preserve"
   enable-background="new 0 0 288.319 105.333"
   viewBox="0 0 288.319 105.333"
   height="105.333px"
   width="288.319px"
   y="0px"
   x="0px"
   id="Layer_1"
   version="1.1"
   sodipodi:docname="logo-paragraphe-blanc.svg"
   inkscape:version="0.92.2 5c3e80d, 2017-08-06"><sodipodi:namedview
     pagecolor="#ffffff"
     bordercolor="#666666"
     borderopacity="1"
     objecttolerance="10"
     gridtolerance="10"
     guidetolerance="10"
     inkscape:pageopacity="0"
     inkscape:pageshadow="2"
     inkscape:window-width="1444"
     inkscape:window-height="813"
     id="namedview43"
     showgrid="false"
     inkscape:zoom="1.4463147"
     inkscape:cx="5.877006"
     inkscape:cy="52.6665"
     inkscape:window-x="0"
     inkscape:window-y="0"
     inkscape:window-maximized="0"
     inkscape:current-layer="Layer_1" /><metadata
     id="metadata83"><rdf:RDF><cc:Work
         rdf:about=""><dc:format>image/svg+xml</dc:format><dc:type
           rdf:resource="http://purl.org/dc/dcmitype/StillImage" /><dc:title /></cc:Work></rdf:RDF></metadata><defs
     id="defs81" /><circle
     style="fill:#ffffff;fill-opacity:1"
     id="circle2"
     r="6.25"
     cy="22.666"
     cx="94.001" /><circle
     style="fill:#ffffff;fill-opacity:1"
     id="circle4"
     r="6.25"
     cy="22.666"
     cx="47.001" /><rect
     style="fill:none;fill-opacity:1;stroke:#ffffff;stroke-opacity:1"
     id="rect6"
     height="47"
     width="47"
     stroke-miterlimit="10"
     stroke="#000000"
     fill="none"
     y="22.666"
     x="47.001" /><rect
     style="fill:none;fill-opacity:1;stroke:#ffffff;stroke-opacity:1"
     id="rect8"
     height="47"
     width="47"
     stroke-miterlimit="10"
     stroke="#000000"
     fill="none"
     y="47.666"
     x="23.501" /><rect
     id="rect10"
     height="47"
     width="47"
     stroke-miterlimit="10"
     stroke="#C2000B"
     fill="none"
     y="10.166"
     x="13.001" /><circle
     style="fill:#ffffff;fill-opacity:1"
     id="circle12"
     r="6.25"
     cy="69.666"
     cx="94.001" /><circle
     style="fill:#ffffff;fill-opacity:1"
     id="circle14"
     r="6.25"
     cy="69.666"
     cx="47.001" /><circle
     style="fill:#ffffff;fill-opacity:1"
     id="circle16"
     r="6.25"
     cy="47.666"
     cx="70.501" /><circle
     style="fill:#ffffff;fill-opacity:1"
     id="circle18"
     r="6.25"
     cy="94.666"
     cx="70.501" /><circle
     style="fill:#ffffff;fill-opacity:1"
     id="circle20"
     r="6.25"
     cy="94.666"
     cx="23.501" /><circle
     style="fill:#ffffff;fill-opacity:1"
     id="circle22"
     r="6.25"
     cy="47.666"
     cx="23.501" /><circle
     id="circle24"
     r="6.25"
     cy="10.166"
     cx="13.001"
     fill="#C2000B" /><circle
     id="circle26"
     r="6.25"
     cy="10.166"
     cx="60.001"
     fill="#C2000B" /><circle
     id="circle28"
     r="6.25"
     cy="57.166"
     cx="59.501"
     fill="#C2000B" /><circle
     id="circle30"
     r="6.25"
     cy="57.166"
     cx="13.001"
     fill="#C2000B" /><g
     id="g54"><path
       id="path32"
       d="M115.33,45.666V33.497h1.32V44.23h4.914v1.436H115.33z"
       fill="#C2000B" /><path
       id="path34"
       d="M128.768,45.666l3.849-12.169h1.411l4.087,12.169h-1.511l-1.161-3.686h-4.198l-1.084,3.686H128.768z    M131.631,40.669h3.398l-1.037-3.37c-0.32-1.035-0.556-1.876-0.705-2.523c-0.129,0.78-0.311,1.555-0.547,2.324L131.631,40.669z"
       fill="#C2000B" /><path
       id="path36"
       d="M145.809,45.666V33.497h3.748c0.759,0,1.36,0.118,1.804,0.353c0.442,0.235,0.806,0.602,1.088,1.099   c0.283,0.498,0.425,1.048,0.425,1.65c0,0.559-0.122,1.062-0.366,1.51c-0.243,0.448-0.586,0.808-1.029,1.079   c0.579,0.21,1.035,0.569,1.368,1.076c0.333,0.506,0.5,1.131,0.5,1.873c0,0.737-0.15,1.383-0.452,1.939   c-0.302,0.557-0.704,0.961-1.208,1.213s-1.195,0.378-2.075,0.378H145.809z M147.129,38.61h2.162c0.565,0,0.967-0.039,1.206-0.116   c0.343-0.116,0.608-0.312,0.794-0.585c0.186-0.274,0.278-0.646,0.278-1.117c0-0.437-0.085-0.801-0.254-1.091   c-0.169-0.291-0.394-0.491-0.673-0.602c-0.28-0.111-0.783-0.166-1.51-0.166h-2.004V38.61z M147.129,44.23h2.485   c0.549,0,0.954-0.05,1.215-0.149c0.376-0.144,0.663-0.38,0.86-0.709c0.196-0.33,0.295-0.743,0.295-1.241   c0-0.459-0.095-0.848-0.283-1.166c-0.188-0.318-0.441-0.551-0.761-0.697c-0.318-0.147-0.818-0.22-1.501-0.22h-2.311V44.23z"
       fill="#C2000B" /><path
       id="path38"
       d="M161.48,39.739c0-2.075,0.457-3.67,1.37-4.785c0.913-1.115,2.05-1.673,3.411-1.673   c0.881,0,1.683,0.249,2.408,0.747c0.725,0.498,1.299,1.222,1.722,2.171c0.424,0.949,0.636,2.079,0.636,3.391   c0,1.804-0.41,3.273-1.229,4.408c-0.902,1.25-2.084,1.876-3.545,1.876c-1.472,0-2.656-0.642-3.553-1.926   C161.887,42.786,161.48,41.383,161.48,39.739z M162.841,39.76c0,1.501,0.331,2.666,0.992,3.493   c0.661,0.828,1.465,1.242,2.412,1.242c0.968,0,1.78-0.418,2.436-1.254c0.656-0.836,0.984-2.066,0.984-3.688   c0-1.047-0.169-1.983-0.507-2.808c-0.26-0.631-0.651-1.137-1.175-1.516c-0.522-0.379-1.094-0.569-1.714-0.569   c-0.996,0-1.816,0.416-2.461,1.246C163.165,36.736,162.841,38.021,162.841,39.76z"
       fill="#C2000B" /><path
       id="path40"
       d="M179.392,45.666V33.497h4.425c0.924,0,1.606,0.113,2.046,0.34c0.44,0.227,0.801,0.604,1.084,1.132   c0.281,0.528,0.423,1.141,0.423,1.837c0,0.918-0.239,1.662-0.718,2.231c-0.479,0.569-1.175,0.932-2.088,1.086   c0.371,0.223,0.653,0.448,0.847,0.677c0.393,0.465,0.739,0.982,1.038,1.552l1.742,3.312h-1.66l-1.33-2.53   c-0.516-0.99-0.905-1.657-1.167-2c-0.263-0.344-0.518-0.575-0.764-0.694c-0.245-0.119-0.59-0.179-1.032-0.179h-1.525v5.404H179.392   z M180.712,38.868h2.839c0.62,0,1.09-0.075,1.411-0.224s0.575-0.385,0.764-0.706s0.282-0.694,0.282-1.121   c0-0.614-0.18-1.097-0.54-1.448c-0.359-0.352-0.894-0.527-1.602-0.527h-3.154V38.868z"
       fill="#C2000B" /><path
       id="path42"
       d="M195.064,45.666l3.849-12.169h1.411l4.087,12.169H202.9l-1.161-3.686h-4.198l-1.084,3.686H195.064z    M197.927,40.669h3.398l-1.037-3.37c-0.32-1.035-0.556-1.876-0.705-2.523c-0.129,0.78-0.311,1.555-0.547,2.324L197.927,40.669z"
       fill="#C2000B" /><path
       id="path44"
       d="M213.69,45.666V34.933h-3.287v-1.436h7.911v1.436h-3.305v10.733H213.69z"
       fill="#C2000B" /><path
       id="path46"
       d="M225.733,39.739c0-2.075,0.457-3.67,1.37-4.785c0.913-1.115,2.05-1.673,3.411-1.673   c0.881,0,1.683,0.249,2.408,0.747c0.725,0.498,1.299,1.222,1.722,2.171c0.424,0.949,0.636,2.079,0.636,3.391   c0,1.804-0.41,3.273-1.229,4.408c-0.902,1.25-2.084,1.876-3.545,1.876c-1.472,0-2.656-0.642-3.553-1.926   C226.14,42.786,225.733,41.383,225.733,39.739z M227.094,39.76c0,1.501,0.331,2.666,0.992,3.493   c0.661,0.828,1.465,1.242,2.412,1.242c0.968,0,1.78-0.418,2.436-1.254c0.656-0.836,0.984-2.066,0.984-3.688   c0-1.047-0.169-1.983-0.507-2.808c-0.26-0.631-0.651-1.137-1.175-1.516c-0.522-0.379-1.094-0.569-1.714-0.569   c-0.996,0-1.816,0.416-2.461,1.246C227.417,36.736,227.094,38.021,227.094,39.76z"
       fill="#C2000B" /><path
       id="path48"
       d="M243.904,45.666V33.497h1.32v12.169H243.904z"
       fill="#C2000B" /><path
       id="path50"
       d="M254.22,45.666V33.497h4.425c0.924,0,1.606,0.113,2.046,0.34c0.44,0.227,0.801,0.604,1.084,1.132   c0.281,0.528,0.423,1.141,0.423,1.837c0,0.918-0.239,1.662-0.718,2.231c-0.479,0.569-1.175,0.932-2.088,1.086   c0.371,0.223,0.653,0.448,0.847,0.677c0.393,0.465,0.739,0.982,1.038,1.552l1.742,3.312h-1.66l-1.33-2.53   c-0.516-0.99-0.905-1.657-1.167-2c-0.263-0.344-0.518-0.575-0.764-0.694c-0.245-0.119-0.59-0.179-1.032-0.179h-1.525v5.404H254.22z    M255.541,38.868h2.839c0.62,0,1.09-0.075,1.411-0.224s0.575-0.385,0.764-0.706s0.282-0.694,0.282-1.121   c0-0.614-0.18-1.097-0.54-1.448c-0.359-0.352-0.894-0.527-1.602-0.527h-3.154V38.868z"
       fill="#C2000B" /><path
       id="path52"
       d="M271.011,45.666V33.497h7.214v1.436h-5.894v3.719h5.52v1.436h-5.52v4.142h6.126v1.436H271.011z"
       fill="#C2000B" /></g><g
     style="fill:#fffffd;fill-opacity:1"
     id="g76"><path
       style="fill:#fffffd;fill-opacity:1"
       id="path56"
       d="M115.186,66.667v-17.18h6.48c1.141,0,2.012,0.055,2.613,0.164c0.844,0.141,1.551,0.408,2.121,0.803   s1.029,0.947,1.377,1.658s0.521,1.492,0.521,2.344c0,1.461-0.465,2.697-1.395,3.709s-2.609,1.518-5.039,1.518h-4.406v6.984H115.186   z M117.459,57.656h4.441c1.469,0,2.512-0.273,3.129-0.82s0.926-1.316,0.926-2.309c0-0.719-0.182-1.334-0.545-1.846   s-0.842-0.85-1.436-1.014c-0.383-0.102-1.09-0.152-2.121-0.152h-4.395V57.656z" /><path
       style="fill:#fffffd;fill-opacity:1"
       id="path58"
       d="M127.766,66.667l6.598-17.18h2.449l7.031,17.18h-2.59l-2.004-5.203h-7.184l-1.887,5.203H127.766z M132.723,59.613h5.824   l-1.793-4.758c-0.547-1.445-0.953-2.633-1.219-3.562c-0.219,1.102-0.527,2.195-0.926,3.281L132.723,59.613z" /><path
       style="fill:#fffffd;fill-opacity:1"
       id="path60"
       d="M145.936,66.667v-17.18h7.617c1.531,0,2.695,0.154,3.492,0.463s1.434,0.854,1.91,1.635s0.715,1.645,0.715,2.59   c0,1.219-0.395,2.246-1.184,3.082s-2.008,1.367-3.656,1.594c0.602,0.289,1.059,0.574,1.371,0.855   c0.664,0.609,1.293,1.371,1.887,2.285l2.988,4.676h-2.859l-2.273-3.574c-0.664-1.031-1.211-1.82-1.641-2.367   s-0.814-0.93-1.154-1.148s-0.686-0.371-1.037-0.457c-0.258-0.055-0.68-0.082-1.266-0.082h-2.637v7.629H145.936z M148.209,57.07   h4.887c1.039,0,1.852-0.107,2.438-0.322s1.031-0.559,1.336-1.031s0.457-0.986,0.457-1.541c0-0.812-0.295-1.48-0.885-2.004   s-1.521-0.785-2.795-0.785h-5.438V57.07z" /><path
       style="fill:#fffffd;fill-opacity:1"
       id="path62"
       d="M161.585,66.667l6.598-17.18h2.449l7.031,17.18h-2.59l-2.004-5.203h-7.184L164,66.667H161.585z M166.542,59.613h5.824   l-1.793-4.758c-0.547-1.445-0.953-2.633-1.219-3.562c-0.219,1.102-0.527,2.195-0.926,3.281L166.542,59.613z" /><path
       style="fill:#fffffd;fill-opacity:1"
       id="path64"
       d="M187.759,59.929v-2.016l7.277-0.012v6.375c-1.117,0.891-2.27,1.561-3.457,2.01s-2.406,0.674-3.656,0.674   c-1.688,0-3.221-0.361-4.6-1.084s-2.42-1.768-3.123-3.135s-1.055-2.895-1.055-4.582c0-1.672,0.35-3.232,1.049-4.682   s1.705-2.525,3.018-3.229s2.824-1.055,4.535-1.055c1.242,0,2.365,0.201,3.369,0.604s1.791,0.963,2.361,1.682   s1.004,1.656,1.301,2.812l-2.051,0.562c-0.258-0.875-0.578-1.562-0.961-2.062s-0.93-0.9-1.641-1.201s-1.5-0.451-2.367-0.451   c-1.039,0-1.938,0.158-2.695,0.475s-1.369,0.732-1.834,1.248s-0.826,1.082-1.084,1.699c-0.438,1.062-0.656,2.215-0.656,3.457   c0,1.531,0.264,2.812,0.791,3.844s1.295,1.797,2.303,2.297s2.078,0.75,3.211,0.75c0.984,0,1.945-0.189,2.883-0.568   s1.648-0.783,2.133-1.213v-3.199H187.759z" /><path
       style="fill:#fffffd;fill-opacity:1"
       id="path66"
       d="M198.664,66.667v-17.18h7.617c1.531,0,2.695,0.154,3.492,0.463s1.434,0.854,1.91,1.635s0.715,1.645,0.715,2.59   c0,1.219-0.395,2.246-1.184,3.082s-2.008,1.367-3.656,1.594c0.602,0.289,1.059,0.574,1.371,0.855   c0.664,0.609,1.293,1.371,1.887,2.285l2.988,4.676h-2.859l-2.273-3.574c-0.664-1.031-1.211-1.82-1.641-2.367   s-0.814-0.93-1.154-1.148s-0.686-0.371-1.037-0.457c-0.258-0.055-0.68-0.082-1.266-0.082h-2.637v7.629H198.664z M200.937,57.07   h4.887c1.039,0,1.852-0.107,2.438-0.322s1.031-0.559,1.336-1.031s0.457-0.986,0.457-1.541c0-0.812-0.295-1.48-0.885-2.004   s-1.521-0.785-2.795-0.785h-5.438V57.07z" /><path
       style="fill:#fffffd;fill-opacity:1"
       id="path68"
       d="M214.314,66.667l6.598-17.18h2.449l7.031,17.18h-2.59l-2.004-5.203h-7.184l-1.887,5.203H214.314z M219.271,59.613h5.824   l-1.793-4.758c-0.547-1.445-0.953-2.633-1.219-3.562c-0.219,1.102-0.527,2.195-0.926,3.281L219.271,59.613z" /><path
       style="fill:#fffffd;fill-opacity:1"
       id="path70"
       d="M232.448,66.667v-17.18h6.48c1.141,0,2.012,0.055,2.613,0.164c0.844,0.141,1.551,0.408,2.121,0.803   s1.029,0.947,1.377,1.658s0.521,1.492,0.521,2.344c0,1.461-0.465,2.697-1.395,3.709s-2.609,1.518-5.039,1.518h-4.406v6.984H232.448   z M234.721,57.656h4.441c1.469,0,2.512-0.273,3.129-0.82s0.926-1.316,0.926-2.309c0-0.719-0.182-1.334-0.545-1.846   s-0.842-0.85-1.436-1.014c-0.383-0.102-1.09-0.152-2.121-0.152h-4.395V57.656z" /><path
       style="fill:#fffffd;fill-opacity:1"
       id="path72"
       d="M248.766,66.667v-17.18h2.273v7.055h8.93v-7.055h2.273v17.18h-2.273V58.57h-8.93v8.098H248.766z" /><path
       style="fill:#fffffd;fill-opacity:1"
       id="path74"
       d="M266.315,66.667v-17.18h12.422v2.027h-10.148v5.262h9.504v2.016h-9.504v5.848h10.547v2.027H266.315z" /></g></svg>