<?xml version="1.0" encoding="UTF-8" standalone="no"?>
<svg
   xmlns:dc="http://purl.org/dc/elements/1.1/"
   xmlns:cc="http://creativecommons.org/ns#"
   xmlns:rdf="http://www.w3.org/1999/02/22-rdf-syntax-ns#"
   xmlns:svg="http://www.w3.org/2000/svg"
   xmlns="http://www.w3.org/2000/svg"
   xmlns:xlink="http://www.w3.org/1999/xlink"
   xmlns:sodipodi="http://sodipodi.sourceforge.net/DTD/sodipodi-0.dtd"
   xmlns:inkscape="http://www.inkscape.org/namespaces/inkscape"
   version="1.1"
   width="470"
   height="390"
   id="svg2"
   inkscape:version="0.91 r13725"
   sodipodi:docname="Venn_four_ellipse_construction.svg">
  <metadata
     id="metadata27">
    <rdf:RDF>
      <cc:Work
         rdf:about="">
        <dc:format>image/svg+xml</dc:format>
        <dc:type
           rdf:resource="http://purl.org/dc/dcmitype/StillImage" />
      </cc:Work>
    </rdf:RDF>
  </metadata>
  <sodipodi:namedview
     pagecolor="#ffffff"
     bordercolor="#666666"
     borderopacity="1"
     objecttolerance="10"
     gridtolerance="10"
     guidetolerance="10"
     inkscape:pageopacity="0"
     inkscape:pageshadow="2"
     inkscape:window-width="1864"
     inkscape:window-height="1068"
     id="namedview25"
     showgrid="false"
     showguides="true"
     inkscape:guide-bbox="true"
     inkscape:zoom="1.4787804"
     inkscape:cx="277.32131"
     inkscape:cy="178.0623"
     inkscape:window-x="0"
     inkscape:window-y="0"
     inkscape:window-maximized="0"
     inkscape:current-layer="svg2">
    <sodipodi:guide
       position="100.80508,-275.97458"
       orientation="0,1"
       id="guide4165" />
    <sodipodi:guide
       position="-8.0463287,371.91919"
       orientation="0,1"
       id="guide4171" />
    <sodipodi:guide
       position="-431.98638,-990.62189"
       orientation="1,0"
       id="guide4173" />
    <sodipodi:guide
       position="-27.715132,242.2839"
       orientation="0,1"
       id="guide4177" />
    <sodipodi:guide
       position="-16.986694,296.37311"
       orientation="0,1"
       id="guide4179" />
    <sodipodi:guide
       position="-1.7880731,296.37311"
       orientation="0,1"
       id="guide4181" />
    <sodipodi:guide
       position="4.0231644,151.09217"
       orientation="0,1"
       id="guide4295" />
    <sodipodi:guide
       position="-5.8112374,105.04929"
       orientation="0,1"
       id="guide4297" />
    <sodipodi:guide
       position="-7.5993105,88.956634"
       orientation="0,1"
       id="guide4299" />
    <sodipodi:guide
       position="234.68459,243.62495"
       orientation="1,0"
       id="guide4301" />
    <sodipodi:guide
       position="75.546086,221.72106"
       orientation="1,0"
       id="guide4303" />
    <sodipodi:guide
       position="128.29424,304.41944"
       orientation="1,0"
       id="guide4305" />
    <sodipodi:guide
       position="341.52195,296.37311"
       orientation="1,0"
       id="guide4307" />
    <sodipodi:guide
       position="384.43571,301.73733"
       orientation="1,0"
       id="guide4311" />
    <sodipodi:guide
       position="160.47956,151.09217"
       orientation="1,0"
       id="guide4313" />
    <sodipodi:guide
       position="144.3869,88.956634"
       orientation="1,0"
       id="guide4315" />
    <sodipodi:guide
       position="90.297689,243.62495"
       orientation="1,0"
       id="guide4317" />
    <sodipodi:guide
       position="309.78366,151.09217"
       orientation="1,0"
       id="guide4319" />
    <sodipodi:guide
       position="325.87631,88.956634"
       orientation="1,0"
       id="guide4321" />
  </sodipodi:namedview>
  <defs
     id="defs4">
    <ellipse
       id="elli"
       rx="187.33333"
       ry="115.33333" />
  </defs>
  <g
     style="fill-opacity:0.2;stroke:#000000;stroke-width:2.4000001"
     transform="translate(-171.4713,-0.5935716)"
     id="g7">
    <g
       transform="translate(479,1024)"
       id="g9">
      <use
         transform="matrix(0.76604444,-0.64278761,0.64278761,0.76604444,0,0)"
         xlink:href="#elli"
         id="use11"
         style="fill:#6fff05"
         x="0"
         y="0"
         width="100%"
         height="100%" />
    </g>
    <g
       transform="translate(407,938)"
       id="g13">
      <use
         transform="matrix(0.76604444,-0.64278761,0.64278761,0.76604444,0,0)"
         xlink:href="#elli"
         id="use15"
         style="fill:#ff6405"
         x="0"
         y="0"
         width="100%"
         height="100%" />
    </g>
    <g
       transform="translate(410,938)"
       id="g17">
      <use
         transform="matrix(0.76604444,0.64278761,-0.64278761,0.76604444,0,0)"
         xlink:href="#elli"
         id="use19"
         style="fill:#0525ff"
         x="0"
         y="0"
         width="100%"
         height="100%" />
    </g>
    <g
       transform="translate(338,1024)"
       id="g21">
      <use
         transform="matrix(0.76604444,0.64278761,-0.64278761,0.76604444,0,0)"
         xlink:href="#elli"
         id="use23"
         style="fill:#1e1e1e"
         x="0"
         y="0"
         width="100%"
         height="100%" />
    </g>
  </g>
  <path
     style="opacity:1;fill:#007800;fill-opacity:0.25301208;stroke:#000000;stroke-width:1.06377292;stroke-miterlimit:4;stroke-dasharray:none;stroke-dashoffset:0;stroke-opacity:1"
     d="m -430.50977,68.167969 a 116.30446,186.86155 49.557263 0 0 -2.34765,1.84375 116.30446,186.86155 49.557263 0 0 -71.81836,91.292971 186.86155,116.30446 39.117924 0 0 3.79492,3.33008 186.86155,116.30446 39.117924 0 0 71.74219,43.62109 116.30446,186.86155 49.557263 0 0 67.67773,-42.0332 116.30446,186.86155 49.557263 0 0 5.24219,-4.66797 186.86155,116.30446 40.442737 0 0 -71.91797,-91.52344 186.86155,116.30446 40.442737 0 0 -2.37305,-1.863281 z"
     id="path4161"
     inkscape:connector-curvature="0" />
  <path
     style="opacity:1;fill:#007800;fill-opacity:0.25301208;stroke:#000000;stroke-width:1.06377292;stroke-miterlimit:4;stroke-dasharray:none;stroke-dashoffset:0;stroke-opacity:1"
     d="m -431.02727,-60.126346 a 116.30446,186.86155 49.557263 0 0 -75.22852,45.23828 116.30446,186.86155 49.557263 0 0 -29.9375,28.96094 186.86155,116.30446 40.442737 0 1 106.93945,54.0957 116.30446,186.86155 49.557263 0 1 108.11329,-54.32031 186.86155,116.30446 39.117924 0 0 -28.7461,-27.24024 186.86155,116.30446 39.117924 0 0 -81.14062,-46.73437 z"
     id="path4214"
     inkscape:connector-curvature="0" />
  <path
     style="opacity:1;fill:#007800;fill-opacity:0.25301208;stroke:#000000;stroke-width:1.06384718;stroke-miterlimit:4;stroke-dasharray:none;stroke-dashoffset:0;stroke-opacity:1"
     id="path4234"
     sodipodi:type="arc"
     sodipodi:cx="-160.42612"
     sodipodi:cy="704.91931"
     sodipodi:rx="186.84505"
     sodipodi:ry="116.33097"
     sodipodi:start="0"
     sodipodi:end="6.2698503"
     d="M 26.41893,704.91931 A 186.84505,116.33097 0 0 1 -159.80322,821.24964 186.84505,116.33097 0 0 1 -347.26701,705.69494 186.84505,116.33097 0 0 1 -162.29477,588.59416 186.84505,116.33097 0 0 1 26.402318,703.36808"
     transform="matrix(0.76913678,0.6390842,-0.6518465,0.75835093,0,0)"
     sodipodi:open="true" />
  <path
     transform="matrix(-0.76786892,0.640607,-0.62768722,-0.77846564,0,0)"
     d="M 918.65376,47.656403 A 186.84505,116.33097 0 0 1 731.81205,163.98737 186.84505,116.33097 0 0 1 544.96367,47.660556 186.84505,116.33097 0 0 1 731.79871,-68.674568 186.84505,116.33097 0 0 1 918.65376,47.648096"
     sodipodi:end="6.2831139"
     sodipodi:start="0"
     sodipodi:ry="116.33097"
     sodipodi:rx="186.84505"
     sodipodi:cy="47.656403"
     sodipodi:cx="731.80872"
     sodipodi:type="arc"
     id="path4236"
     style="opacity:1;fill:#c97800;fill-opacity:0.25301208;stroke:#000000;stroke-width:1.06384718;stroke-miterlimit:4;stroke-dasharray:none;stroke-dashoffset:0;stroke-opacity:1"
     sodipodi:open="true" />
  <path
     style="opacity:1;fill:#c9e600;fill-opacity:0.25301208;stroke:#000000;stroke-width:1.06384718;stroke-miterlimit:4;stroke-dasharray:none;stroke-dashoffset:0;stroke-opacity:1"
     id="path4238"
     sodipodi:type="arc"
     sodipodi:cx="726.5592"
     sodipodi:cy="-65.373627"
     sodipodi:rx="186.84505"
     sodipodi:ry="116.33097"
     sodipodi:start="0"
     sodipodi:end="6.2739931"
     d="M 913.40425,-65.373627 A 186.84505,116.33097 0 0 1 726.98858,50.957037 186.84505,116.33097 0 0 1 539.71613,-64.838959 186.84505,116.33097 0 0 1 725.27108,-181.70183 186.84505,116.33097 0 0 1 913.39636,-66.44295"
     transform="matrix(-0.76786892,0.640607,-0.62768722,-0.77846564,0,0)"
     sodipodi:open="true" />
  <path
     transform="matrix(0.76786892,0.640607,0.62768722,-0.77846564,0,0)"
     d="M -1.9935303,-818.66394 A 186.84505,116.33097 0 0 1 -188.3788,-702.33332 186.84505,116.33097 0 0 1 -375.68136,-818.09142 186.84505,116.33097 0 0 1 -190.2179,-934.99174 186.84505,116.33097 0 0 1 -2.0025814,-819.80897"
     sodipodi:end="6.2733423"
     sodipodi:start="0"
     sodipodi:ry="116.33097"
     sodipodi:rx="186.84505"
     sodipodi:cy="-818.66394"
     sodipodi:cx="-188.83858"
     sodipodi:type="arc"
     id="path4240"
     style="opacity:1;fill:#c93c00;fill-opacity:0.25301208;stroke:#000000;stroke-width:1.06384718;stroke-miterlimit:4;stroke-dasharray:none;stroke-dashoffset:0;stroke-opacity:1"
     sodipodi:open="true" />
  <path
     style="opacity:1;fill:#007800;fill-opacity:0.25301208;stroke:#000000;stroke-width:1.06377292;stroke-miterlimit:4;stroke-dasharray:none;stroke-dashoffset:0;stroke-opacity:1"
     d="m -491.19508,-73.027733 a 186.86155,116.30446 39.117924 0 0 -9.82813,0.0918 186.86155,116.30446 39.117924 0 0 -67.46484,29.50781 186.86155,116.30446 39.117924 0 0 -18.20508,54.18164 186.86155,116.30446 40.442737 0 1 50.2793,2.92578 116.30446,186.86155 49.557263 0 1 30.1582,-29.19531 116.30446,186.86155 49.557263 0 1 75.32227,-45.2793 186.86155,116.30446 39.117924 0 0 -60.26172,-12.23242 z"
     id="path4248"
     inkscape:connector-curvature="0" />
  <path
     style="opacity:1;fill:#007800;fill-opacity:0.25301208;stroke:#000000;stroke-width:1.06377292;stroke-miterlimit:4;stroke-dasharray:none;stroke-dashoffset:0;stroke-opacity:1"
     d="m -321.25275,13.870218 c -36.37745,7.54435 -74.64189,26.70558 -108.22265,54.19336 0.77905,0.6275 1.55511,1.25903 2.32812,1.89453 52.86945,44.279202 86.50655,103.293732 87.50195,153.517582 24.852,-2.6448 45.16541,-12.35797 58.81446,-28.12305 l 0.99804,-1.18555 c 34.55335,-42.16081 17.33466,-117.112072 -41.41992,-180.296872 z"
     id="path4261"
     inkscape:connector-curvature="0"
     sodipodi:nodetypes="ccccccc" />
  <path
     style="opacity:1;fill:#007800;fill-opacity:0.25301208;stroke:#000000;stroke-width:1.06377292;stroke-miterlimit:4;stroke-dasharray:none;stroke-dashoffset:0;stroke-opacity:1"
     d="M -526.0332 -631.78516 A 186.86155 116.30446 39.117924 0 0 -593.49609 -602.27734 A 186.86155 116.30446 39.117924 0 0 -528.42578 -398.18164 A 116.30446 186.86155 49.557263 0 1 -456.61328 -489.46484 A 116.30446 186.86155 49.557263 0 1 -346.00586 -545.65234 A 186.86155 116.30446 39.117924 0 0 -374.89648 -572.86914 A 186.86155 116.30446 39.117924 0 0 -526.0332 -631.78516 z "
     id="path4279" />
  <path
     style="opacity:1;fill:#c97800;fill-opacity:0.25301208;stroke:#000000;stroke-width:1.06377292;stroke-miterlimit:4;stroke-dasharray:none;stroke-dashoffset:0;stroke-opacity:1"
     d="M -391.25 -633.85938 A 116.30446 186.86155 49.557263 0 0 -531.26562 -574.36328 A 116.30446 186.86155 49.557263 0 0 -561.20898 -545.40625 A 186.86155 116.30446 40.442737 0 1 -451.89258 -489.44336 A 186.86155 116.30446 40.442737 0 1 -379.94141 -397.85352 A 116.30446 186.86155 49.557263 0 0 -314.77344 -603.50391 A 116.30446 186.86155 49.557263 0 0 -391.25 -633.85938 z "
     id="path4281" />
  <path
     style="fill:none;fill-rule:evenodd;stroke:#00d900;stroke-width:2;stroke-linecap:butt;stroke-linejoin:miter;stroke-opacity:1;stroke-miterlimit:4;stroke-dasharray:none"
     d="M 128.96477,92.732853 C 154.40253,68.15593 177.29488,43.717848 234.46108,17.410283 179.18045,-7.7187413 74.944231,-10.014482 74.875559,89.827237 94.327883,87.594953 111.87526,89.648803 128.96477,92.732853 Z"
     id="path4339"
     inkscape:connector-curvature="0"
     sodipodi:nodetypes="cccc" />
  <path
     sodipodi:nodetypes="cccc"
     inkscape:connector-curvature="0"
     id="path4341"
     d="M 341.55314,92.956362 C 316.11538,68.379439 293.22303,43.941357 236.05683,17.633792 291.33746,-7.4952322 395.57368,-9.7909729 395.64235,90.050746 c -19.45232,-2.232284 -36.9997,-0.178434 -54.08921,2.905616 z"
     style="fill:none;fill-rule:evenodd;stroke:#00d900;stroke-width:2;stroke-linecap:butt;stroke-linejoin:miter;stroke-opacity:1;stroke-miterlimit:4;stroke-dasharray:none" />
  <path
     style="fill:none;fill-rule:evenodd;stroke:#00d900;stroke-width:2;stroke-linecap:butt;stroke-linejoin:miter;stroke-opacity:1;stroke-miterlimit:4;stroke-dasharray:none"
     d="m 379.7732,149.95119 c -5.68226,-10.32129 -10.54641,-21.17826 -17.75792,-30.57558 -6.54957,-8.88189 -13.43718,-17.50713 -20.23863,-26.195732 16.23735,-4.131862 33.30567,-5.466945 49.92899,-3.123639 1.70902,0.404378 4.72351,-0.01007 3.43574,2.595521 -1.69254,11.83165 -3.16523,23.81274 -7.248,35.11754 -2.53741,7.4545 -5.36141,14.80755 -8.12018,22.18189 z"
     id="path4343"
     inkscape:connector-curvature="0" />
  <path
     inkscape:connector-curvature="0"
     id="path4346"
     d="m 90.444523,149.72768 c 5.68226,-10.32129 10.546407,-21.17826 17.757917,-30.57558 6.54957,-8.88189 13.43718,-17.50713 20.23863,-26.195731 -16.23735,-4.131862 -33.305667,-5.466945 -49.928987,-3.123639 -1.70902,0.404378 -4.72351,-0.01007 -3.43574,2.595521 1.69254,11.831649 3.16523,23.812739 7.248,35.117539 2.53741,7.4545 5.36141,14.80755 8.12018,22.18189 z"
     style="fill:none;fill-rule:evenodd;stroke:#00d900;stroke-width:2;stroke-linecap:butt;stroke-linejoin:miter;stroke-opacity:1;stroke-miterlimit:4;stroke-dasharray:none" />
  <path
     style="fill:none;fill-rule:evenodd;stroke:#00d900;stroke-width:2;stroke-linecap:butt;stroke-linejoin:miter;stroke-opacity:1;stroke-miterlimit:4;stroke-dasharray:none"
     d="m 143.8632,300.14933 c 4.08993,-38.57928 8.95701,-41.17798 16.76318,-61.68852 -36.16335,-26.93173 -59.64397,-68.13703 -70.268313,-88.50412 -2.216283,-2.52402 -63.322931,131.01385 53.505133,150.19264 z"
     id="path4348"
     inkscape:connector-curvature="0"
     sodipodi:nodetypes="cccc" />
  <path
     sodipodi:nodetypes="cccc"
     inkscape:connector-curvature="0"
     id="path4350"
     d="m 326.43248,300.37284 c -4.08993,-38.57928 -8.95701,-41.17798 -16.76318,-61.68852 36.16335,-26.93173 59.64397,-68.13703 70.26831,-88.50412 2.21628,-2.52402 63.32293,131.01385 -53.50513,150.19264 z"
     style="fill:none;fill-rule:evenodd;stroke:#00d900;stroke-width:2;stroke-linecap:butt;stroke-linejoin:miter;stroke-opacity:1;stroke-miterlimit:4;stroke-dasharray:none" />
  <path
     style="fill:none;fill-rule:evenodd;stroke:#00d900;stroke-width:2;stroke-linecap:butt;stroke-linejoin:miter;stroke-opacity:1;stroke-miterlimit:4;stroke-dasharray:none"
     d="m 325.76195,300.14933 c -24.53205,3.91452 -66.11351,-1.52826 -90.52119,-14.97511 48.93237,-23.86644 54.81881,-31.42813 74.51498,-46.4844 13.90287,29.08149 15.60645,49.08189 16.00621,61.45951 z"
     id="path4352"
     inkscape:connector-curvature="0"
     sodipodi:nodetypes="cccc" />
  <path
     sodipodi:nodetypes="cccc"
     inkscape:connector-curvature="0"
     id="path4354"
     d="m 144.59535,300.59635 c 24.53205,3.91452 66.11351,-1.52826 90.52119,-14.97511 -48.93237,-23.86644 -54.81881,-31.42813 -74.51498,-46.4844 -13.90287,29.08149 -15.60645,49.08189 -16.00621,61.45951 z"
     style="fill:none;fill-rule:evenodd;stroke:#00d900;stroke-width:2;stroke-linecap:butt;stroke-linejoin:miter;stroke-opacity:1;stroke-miterlimit:4;stroke-dasharray:none" />
  <path
     style="fill:none;fill-rule:evenodd;stroke:#f41f00;stroke-width:2;stroke-linecap:butt;stroke-linejoin:miter;stroke-opacity:1;stroke-miterlimit:4;stroke-dasharray:none"
     d="M 234.8467,147.44301 C 201.75565,117.85666 151.41957,96.49674 129.21946,93.076066 145.28604,75.57528 178.73193,41.145964 235.48532,17.706679 263.65781,30.202896 296.95291,46.40569 341.18281,93.206989 299.71187,101.15357 251.78708,130.97689 234.8467,147.44301 Z"
     id="path4356"
     inkscape:connector-curvature="0"
     sodipodi:nodetypes="ccccc" />
  <path
     sodipodi:nodetypes="ccccc"
     inkscape:connector-curvature="0"
     id="path4358"
     d="m 235.42764,285.56335 c -41.01101,-17.35734 -62.08114,-36.40176 -74.98223,-46.66938 20.48096,-36.27432 31.66568,-54.59038 74.31372,-91.9264 35.28199,26.55076 66.5965,70.2713 74.18107,92.20255 -20.34231,18.5109 -47.86491,34.28074 -73.51256,46.39323 z"
     style="fill:none;fill-rule:evenodd;stroke:#f41f00;stroke-width:2;stroke-linecap:butt;stroke-linejoin:miter;stroke-opacity:1;stroke-miterlimit:4;stroke-dasharray:none" />
  <path
     style="fill:none;fill-rule:evenodd;stroke:#f41f00;stroke-width:2;stroke-linecap:butt;stroke-linejoin:miter;stroke-opacity:1;stroke-miterlimit:4;stroke-dasharray:none"
     d="m 143.19214,300.51279 c 45.44377,6.74154 93.8905,-14.8771 91.66968,-15.82716 36.56664,20.34618 85.80041,17.56122 91.02355,15.17903 11.05598,111.6147 -183.66245,124.29382 -182.69323,0.64813 z"
     id="path4360"
     inkscape:connector-curvature="0"
     sodipodi:nodetypes="cccc" />
  <path
     style="fill:none;fill-rule:evenodd;stroke:#f41fe4;stroke-width:2;stroke-linecap:butt;stroke-linejoin:miter;stroke-opacity:1;stroke-miterlimit:4;stroke-dasharray:none"
     d="m 326.35001,300.07613 c 98.15641,-15.93726 75.9211,-112.45743 53.73654,-150.73383 16.09843,-44.05268 10.52827,-32.42058 15.45862,-59.154165 134.59635,21.511745 69.04111,235.943855 -118.57088,291.758835 41.11664,-20.56518 49.26786,-50.55767 49.37572,-81.87084 z"
     id="path4362"
     inkscape:connector-curvature="0"
     sodipodi:nodetypes="ccccc" />
  <path
     sodipodi:nodetypes="ccccc"
     inkscape:connector-curvature="0"
     id="path4364"
     d="M 144.43973,300.75236 C 46.283317,284.8151 68.518627,188.29493 90.703187,150.01853 74.604757,105.96585 80.174917,117.59795 75.244567,90.864368 -59.351783,112.37611 6.2034574,326.80822 193.81545,382.6232 152.69881,362.05802 144.54759,332.06553 144.43973,300.75236 Z"
     style="fill:none;fill-rule:evenodd;stroke:#f41fe4;stroke-width:2;stroke-linecap:butt;stroke-linejoin:miter;stroke-opacity:1;stroke-miterlimit:4;stroke-dasharray:none" />
</svg>
