<?xml version="1.0" encoding="UTF-8" standalone="no"?>
<!-- Created with Inkscape (http://www.inkscape.org/) -->

<svg
   xmlns:dc="http://purl.org/dc/elements/1.1/"
   xmlns:cc="http://creativecommons.org/ns#"
   xmlns:rdf="http://www.w3.org/1999/02/22-rdf-syntax-ns#"
   xmlns:svg="http://www.w3.org/2000/svg"
   xmlns="http://www.w3.org/2000/svg"
   xmlns:xlink="http://www.w3.org/1999/xlink"
   xmlns:sodipodi="http://sodipodi.sourceforge.net/DTD/sodipodi-0.dtd"
   xmlns:inkscape="http://www.inkscape.org/namespaces/inkscape"
   id="svg2"
   version="1.1"
   inkscape:version="0.91 r13725"
   xml:space="preserve"
   sodipodi:docname="EmoStates.svg"
   height="600"
   width="600"><defs
     id="defs6"><clipPath
       clipPathUnits="userSpaceOnUse"
       id="clipPath30"><path
         d="m 0,841.89 595.28,0 L 595.28,0 0,0 0,841.89 Z"
         id="path32"
         inkscape:connector-curvature="0" /></clipPath><clipPath
       clipPathUnits="userSpaceOnUse"
       id="clipPath38"><path
         d="m 113.767,604.818 367.746,0 0,-367.746 -367.746,0 0,367.746 z"
         id="path40"
         inkscape:connector-curvature="0" /></clipPath><clipPath
       clipPathUnits="userSpaceOnUse"
       id="clipPath66"><path
         d="m 128.675,589.91 337.93,0 0,-337.93 -337.93,0 0,337.93 z"
         id="path68"
         inkscape:connector-curvature="0" /></clipPath><clipPath
       clipPathUnits="userSpaceOnUse"
       id="clipPath94"><path
         d="m 143.584,575.001 308.112,0 0,-308.112 -308.112,0 0,308.112 z"
         id="path96"
         inkscape:connector-curvature="0" /></clipPath><clipPath
       clipPathUnits="userSpaceOnUse"
       id="clipPath122"><path
         d="m 158.493,560.092 278.294,0 0,-278.294 -278.294,0 0,278.294 z"
         id="path124"
         inkscape:connector-curvature="0" /></clipPath><clipPath
       clipPathUnits="userSpaceOnUse"
       id="clipPath150"><path
         d="m 173.401,545.184 248.478,0 0,-248.478 -248.478,0 0,248.478 z"
         id="path152"
         inkscape:connector-curvature="0" /></clipPath><clipPath
       clipPathUnits="userSpaceOnUse"
       id="clipPath178"><path
         d="m 188.31,530.275 218.66,0 0,-218.66 -218.66,0 0,218.66 z"
         id="path180"
         inkscape:connector-curvature="0" /></clipPath><clipPath
       clipPathUnits="userSpaceOnUse"
       id="clipPath206"><path
         d="m 203.219,515.366 188.842,0 0,-188.842 -188.842,0 0,188.842 z"
         id="path208"
         inkscape:connector-curvature="0" /></clipPath><clipPath
       clipPathUnits="userSpaceOnUse"
       id="clipPath234"><path
         d="m 218.127,500.458 159.026,0 0,-159.026 -159.026,0 0,159.026 z"
         id="path236"
         inkscape:connector-curvature="0" /></clipPath><clipPath
       clipPathUnits="userSpaceOnUse"
       id="clipPath262"><path
         d="m 233.036,485.549 129.208,0 0,-129.208 -129.208,0 0,129.208 z"
         id="path264"
         inkscape:connector-curvature="0" /></clipPath></defs><sodipodi:namedview
     pagecolor="#ffffff"
     bordercolor="#666666"
     borderopacity="1"
     objecttolerance="10"
     gridtolerance="10"
     guidetolerance="10"
     inkscape:pageopacity="0"
     inkscape:pageshadow="2"
     inkscape:window-width="1864"
     inkscape:window-height="989"
     id="namedview4"
     showgrid="false"
     showguides="true"
     inkscape:guide-bbox="true"
     inkscape:zoom="1.3116666"
     inkscape:cx="208.51332"
     inkscape:cy="252.83327"
     inkscape:window-x="0"
     inkscape:window-y="46"
     inkscape:window-maximized="0"
     inkscape:current-layer="svg2"><sodipodi:guide
       position="297.33166,783.73575"
       orientation="1,0"
       id="guide4444" /><sodipodi:guide
       position="567.9797,551.96954"
       orientation="0,1"
       id="guide4446" /></sodipodi:namedview><g
     transform="translate(-4.2682654,2.8425671)"
     id="g36" /><g
     transform="translate(-4.2682654,2.8425671)"
     id="g64" /><g
     transform="translate(-4.2682654,2.8425671)"
     id="g92" /><g
     transform="translate(-4.2682654,2.8425671)"
     id="g120" /><g
     transform="translate(-4.2682654,2.8425671)"
     id="g148" /><g
     transform="translate(-4.2682654,2.8425671)"
     id="g176" /><g
     transform="translate(-4.2682654,2.8425671)"
     id="g204" /><g
     transform="translate(-4.2682654,2.8425671)"
     id="g232" /><g
     transform="translate(-4.2682654,2.8425671)"
     id="g260" /><text
     transform="scale(1,-1)"
     sodipodi:linespacing="125%"
     id="text4373"
     y="-638.5863"
     x="592.83356"
     style="font-style:normal;font-weight:normal;font-size:12px;line-height:125%;font-family:Sans;letter-spacing:0px;word-spacing:0px;fill:#000000;fill-opacity:1;stroke:none;stroke-width:1px;stroke-linecap:butt;stroke-linejoin:miter;stroke-opacity:1"
     xml:space="preserve"><tspan
       y="-638.5863"
       x="592.83356"
       id="tspan4375"
       sodipodi:role="line" /></text>
<g
     id="g4986"
     transform="translate(0,-241.88997)"><rect
       style="fill:#ff0c1c;fill-opacity:0;stroke:#000000;stroke-width:0.59940058;stroke-miterlimit:4;stroke-dasharray:none;stroke-opacity:1"
       id="rect4371"
       width="599.40057"
       height="599.40063"
       x="0.29970029"
       y="-841.59027"
       transform="scale(1,-1)" /><g
       transform="translate(-22.641445,18.73709)"
       id="g4880"><g
         transform="matrix(1,0,0,-1,-9.0809138,1045.5314)"
         id="g4617"><g
           clip-path="url(#clipPath38)"
           id="g44"
           style="opacity:0.10000598"
           transform="translate(31.440892,102.6964)"><g
             transform="translate(178.1645,540.4205)"
             id="g46"><path
               d="m 0,0 -10.542,10.542 c -71.808,-71.808 -71.808,-188.227 0,-260.035 L 0,-238.951 C -65.986,-172.965 -65.985,-65.985 0,0"
               style="fill:#d41417;fill-opacity:1;fill-rule:nonzero;stroke:none"
               id="path48"
               inkscape:connector-curvature="0" /></g><g
             transform="translate(417.1155,540.4205)"
             id="g50"><path
               d="m 0,0 10.542,10.542 c -71.808,71.808 -188.227,71.808 -260.035,0 L -238.951,0 C -172.966,65.986 -65.986,65.986 0,0"
               style="fill:#ffe956;fill-opacity:1;fill-rule:nonzero;stroke:none"
               id="path52"
               inkscape:connector-curvature="0" /></g><g
             transform="translate(178.1645,301.4695)"
             id="g54"><path
               d="m 0,0 0,0 -10.542,-10.542 c 71.808,-71.808 188.227,-71.808 260.035,0 L 238.951,0 C 172.966,-65.985 65.985,-65.985 0,0"
               style="fill:#233f92;fill-opacity:1;fill-rule:nonzero;stroke:none"
               id="path56"
               inkscape:connector-curvature="0" /></g><g
             transform="translate(427.6575,550.9625)"
             id="g58"><path
               d="m 0,0 -10.542,-10.542 c 65.986,-65.985 65.986,-172.965 0,-238.951 L 0,-260.035 C 71.808,-188.227 71.808,-71.808 0,0"
               style="fill:#0d8136;fill-opacity:1;fill-rule:nonzero;stroke:none"
               id="path60"
               inkscape:connector-curvature="0" /></g></g><g
           id="g70"
           transform="translate(31.440892,102.6964)"><g
             style="opacity:0.19999701"
             id="g72"
             clip-path="url(#clipPath66)"><g
               id="g74"
               transform="translate(188.7064,312.0114)"><path
                 inkscape:connector-curvature="0"
                 id="path76"
                 style="fill:#d41417;fill-opacity:1;fill-rule:nonzero;stroke:none"
                 d="m 0,0 c -60.163,60.163 -60.163,157.704 0,217.867 l -10.542,10.542 c -65.985,-65.985 -65.985,-172.965 0,-238.951 L 0,0 Z" /></g><g
               id="g78"
               transform="translate(178.1645,540.4205)"><path
                 inkscape:connector-curvature="0"
                 id="path80"
                 style="fill:#ffe956;fill-opacity:1;fill-rule:nonzero;stroke:none"
                 d="m 0,0 10.542,-10.542 c 60.163,60.163 157.704,60.163 217.867,0 L 238.951,0 C 172.966,65.986 65.985,65.986 0,0" /></g><g
               id="g82"
               transform="translate(188.7065,312.0114)"><path
                 inkscape:connector-curvature="0"
                 id="path84"
                 style="fill:#233f92;fill-opacity:1;fill-rule:nonzero;stroke:none"
                 d="m 0,0 -10.542,-10.542 c 65.985,-65.985 172.966,-65.985 238.951,0 L 217.867,0 C 157.704,-60.163 60.163,-60.163 0,0" /></g><g
               id="g86"
               transform="translate(406.5735,312.0114)"><path
                 inkscape:connector-curvature="0"
                 id="path88"
                 style="fill:#0d8136;fill-opacity:1;fill-rule:nonzero;stroke:none"
                 d="m 0,0 10.542,-10.542 c 65.985,65.986 65.985,172.966 0,238.951 L 0,217.867 C 60.163,157.704 60.163,60.163 0,0" /></g></g></g><g
           id="g98"
           transform="translate(31.440892,102.6964)"><g
             style="opacity:0.30000299"
             id="g100"
             clip-path="url(#clipPath94)"><g
               id="g102"
               transform="translate(188.7064,312.0114)"><path
                 inkscape:connector-curvature="0"
                 id="path104"
                 style="fill:#d41417;fill-opacity:1;fill-rule:nonzero;stroke:none"
                 d="m 0,0 10.542,10.542 c -54.341,54.341 -54.341,142.442 0,196.783 L 0,217.867 C -60.163,157.704 -60.163,60.163 0,0" /></g><g
               id="g106"
               transform="translate(396.0316,519.3366)"><path
                 inkscape:connector-curvature="0"
                 id="path108"
                 style="fill:#ffe956;fill-opacity:1;fill-rule:nonzero;stroke:none"
                 d="m 0,0 10.542,10.542 c -60.163,60.163 -157.704,60.163 -217.867,0 L -196.783,0 C -142.442,54.341 -54.341,54.341 0,0" /></g><g
               id="g110"
               transform="translate(199.2484,322.5534)"><path
                 inkscape:connector-curvature="0"
                 id="path112"
                 style="fill:#233f92;fill-opacity:1;fill-rule:nonzero;stroke:none"
                 d="m 0,0 -10.542,-10.542 c 60.163,-60.163 157.704,-60.163 217.867,0 L 196.783,0 C 142.442,-54.341 54.341,-54.341 0,0" /></g><g
               id="g114"
               transform="translate(396.0316,322.5534)"><path
                 inkscape:connector-curvature="0"
                 id="path116"
                 style="fill:#0d8136;fill-opacity:1;fill-rule:nonzero;stroke:none"
                 d="m 0,0 10.542,-10.542 c 60.163,60.163 60.163,157.704 0,217.867 L 0,196.783 C 54.341,142.442 54.341,54.341 0,0" /></g></g></g><g
           id="g126"
           transform="translate(31.440892,102.6964)"><g
             style="opacity:0.39999402"
             id="g128"
             clip-path="url(#clipPath122)"><g
               id="g130"
               transform="translate(209.7903,333.0954)"><path
                 inkscape:connector-curvature="0"
                 id="path132"
                 style="fill:#d41417;fill-opacity:1;fill-rule:nonzero;stroke:none"
                 d="m 0,0 c -48.519,48.519 -48.519,127.181 0,175.699 l -10.542,10.542 c -54.341,-54.341 -54.341,-142.442 0,-196.783 L 0,0 Z" /></g><g
               id="g134"
               transform="translate(385.4896,508.7946)"><path
                 inkscape:connector-curvature="0"
                 id="path136"
                 style="fill:#ffe956;fill-opacity:1;fill-rule:nonzero;stroke:none"
                 d="m 0,0 0,0 10.542,10.542 c -54.341,54.341 -142.442,54.341 -196.783,0 L -175.699,0 C -127.181,48.519 -48.519,48.519 0,0" /></g><g
               id="g138"
               transform="translate(209.7904,333.0954)"><path
                 inkscape:connector-curvature="0"
                 id="path140"
                 style="fill:#233f92;fill-opacity:1;fill-rule:nonzero;stroke:none"
                 d="m 0,0 -10.542,-10.542 c 54.341,-54.341 142.442,-54.341 196.783,0 L 175.699,0 C 127.18,-48.519 48.519,-48.519 0,0" /></g><g
               id="g142"
               transform="translate(385.4896,333.0954)"><path
                 inkscape:connector-curvature="0"
                 id="path144"
                 style="fill:#0d8136;fill-opacity:1;fill-rule:nonzero;stroke:none"
                 d="m 0,0 10.542,-10.542 c 54.341,54.341 54.341,142.442 0,196.783 L 0,175.699 C 48.519,127.18 48.519,48.519 0,0" /></g></g></g><g
           id="g154"
           transform="translate(31.440892,102.6964)"><g
             style="opacity:0.5"
             id="g156"
             clip-path="url(#clipPath150)"><g
               id="g158"
               transform="translate(220.3323,498.2527)"><path
                 inkscape:connector-curvature="0"
                 id="path160"
                 style="fill:#d41417;fill-opacity:1;fill-rule:nonzero;stroke:none"
                 d="m 0,0 -10.542,10.542 c -48.519,-48.519 -48.519,-127.181 0,-175.699 L 0,-154.615 C -42.697,-111.919 -42.697,-42.696 0,0" /></g><g
               id="g162"
               transform="translate(374.9477,498.2527)"><path
                 inkscape:connector-curvature="0"
                 id="path164"
                 style="fill:#ffe956;fill-opacity:1;fill-rule:nonzero;stroke:none"
                 d="m 0,0 10.542,10.542 c -48.519,48.519 -127.181,48.519 -175.699,0 L -154.615,0 C -111.919,42.697 -42.697,42.697 0,0" /></g><g
               id="g166"
               transform="translate(220.3323,343.6373)"><path
                 inkscape:connector-curvature="0"
                 id="path168"
                 style="fill:#233f92;fill-opacity:1;fill-rule:nonzero;stroke:none"
                 d="m 0,0 -10.542,-10.542 c 48.519,-48.519 127.181,-48.519 175.699,0 L 154.615,0 C 111.919,-42.696 42.696,-42.696 0,0" /></g><g
               id="g170"
               transform="translate(374.9477,343.6373)"><path
                 inkscape:connector-curvature="0"
                 id="path172"
                 style="fill:#0d8136;fill-opacity:1;fill-rule:nonzero;stroke:none"
                 d="m 0,0 10.542,-10.542 c 48.519,48.519 48.519,127.181 0,175.699 L 0,154.615 C 42.696,111.919 42.696,42.697 0,0" /></g></g></g><g
           id="g182"
           transform="translate(31.440892,102.6964)"><g
             style="opacity:0.60000598"
             id="g184"
             clip-path="url(#clipPath178)"><g
               id="g186"
               transform="translate(230.8743,354.1793)"><path
                 inkscape:connector-curvature="0"
                 id="path188"
                 style="fill:#d41417;fill-opacity:1;fill-rule:nonzero;stroke:none"
                 d="m 0,0 c -36.874,36.874 -36.874,96.657 0,133.531 l -10.542,10.542 c -42.696,-42.696 -42.696,-111.918 0,-154.615 L 0,0 Z" /></g><g
               id="g190"
               transform="translate(364.4057,487.7107)"><path
                 inkscape:connector-curvature="0"
                 id="path192"
                 style="fill:#ffe956;fill-opacity:1;fill-rule:nonzero;stroke:none"
                 d="m 0,0 0,0 10.542,10.542 c -42.697,42.696 -111.919,42.696 -154.615,0 L -133.531,0 C -96.657,36.874 -36.874,36.874 0,0" /></g><g
               id="g194"
               transform="translate(374.9477,343.6373)"><path
                 inkscape:connector-curvature="0"
                 id="path196"
                 style="fill:#233f92;fill-opacity:1;fill-rule:nonzero;stroke:none"
                 d="m 0,0 -10.542,10.542 c -36.874,-36.874 -96.657,-36.874 -133.531,0 L -154.615,0 C -111.919,-42.696 -42.696,-42.696 0,0" /></g><g
               id="g198"
               transform="translate(364.4057,354.1793)"><path
                 inkscape:connector-curvature="0"
                 id="path200"
                 style="fill:#0d8136;fill-opacity:1;fill-rule:nonzero;stroke:none"
                 d="m 0,0 10.542,-10.542 c 42.696,42.697 42.696,111.919 0,154.615 L 0,133.531 C 36.874,96.657 36.874,36.874 0,0" /></g></g></g><g
           id="g210"
           transform="translate(31.440892,102.6964)"><g
             style="opacity:0.69999701"
             id="g212"
             clip-path="url(#clipPath206)"><g
               id="g214"
               transform="translate(241.4162,364.7212)"><path
                 inkscape:connector-curvature="0"
                 id="path216"
                 style="fill:#d41417;fill-opacity:1;fill-rule:nonzero;stroke:none"
                 d="m 0,0 c -31.052,31.052 -31.052,81.396 0,112.448 l -10.542,10.542 c -36.874,-36.875 -36.874,-96.658 0,-133.532 L 0,0 Z" /></g><g
               id="g218"
               transform="translate(353.8638,477.1688)"><path
                 inkscape:connector-curvature="0"
                 id="path220"
                 style="fill:#ffe956;fill-opacity:1;fill-rule:nonzero;stroke:none"
                 d="m 0,0 0,0 10.542,10.542 c -36.874,36.874 -96.657,36.874 -133.532,0 L -112.448,0 C -81.396,31.052 -31.052,31.052 0,0" /></g><g
               id="g222"
               transform="translate(241.4163,364.7212)"><path
                 inkscape:connector-curvature="0"
                 id="path224"
                 style="fill:#233f92;fill-opacity:1;fill-rule:nonzero;stroke:none"
                 d="m 0,0 -10.542,-10.542 c 36.874,-36.874 96.657,-36.874 133.531,0 L 112.448,0 C 81.396,-31.052 31.052,-31.052 0,0" /></g><g
               id="g226"
               transform="translate(364.4057,487.7107)"><path
                 inkscape:connector-curvature="0"
                 id="path228"
                 style="fill:#0d8136;fill-opacity:1;fill-rule:nonzero;stroke:none"
                 d="m 0,0 -10.542,-10.542 c 31.052,-31.052 31.052,-81.395 0,-112.447 L 0,-133.531 C 36.874,-96.657 36.874,-36.874 0,0" /></g></g></g><g
           id="g238"
           transform="translate(31.440892,102.6964)"><g
             style="opacity:0.80000299"
             id="g240"
             clip-path="url(#clipPath234)"><g
               id="g242"
               transform="translate(251.9582,466.6268)"><path
                 inkscape:connector-curvature="0"
                 id="path244"
                 style="fill:#d41417;fill-opacity:1;fill-rule:nonzero;stroke:none"
                 d="m 0,0 -10.542,10.542 c -31.052,-31.052 -31.052,-81.396 0,-112.448 L 0,-91.364 C -25.23,-66.134 -25.23,-25.23 0,0" /></g><g
               id="g246"
               transform="translate(343.3218,466.6268)"><path
                 inkscape:connector-curvature="0"
                 id="path248"
                 style="fill:#ffe956;fill-opacity:1;fill-rule:nonzero;stroke:none"
                 d="m 0,0 10.542,10.542 c -31.052,31.052 -81.396,31.052 -112.448,0 L -91.364,0 C -66.134,25.23 -25.23,25.23 0,0" /></g><g
               id="g250"
               transform="translate(251.9582,375.2632)"><path
                 inkscape:connector-curvature="0"
                 id="path252"
                 style="fill:#233f92;fill-opacity:1;fill-rule:nonzero;stroke:none"
                 d="m 0,0 -10.542,-10.542 c 31.052,-31.052 81.396,-31.052 112.448,0 L 91.364,0 C 66.134,-25.23 25.23,-25.23 0,0" /></g><g
               id="g254"
               transform="translate(343.3218,375.2632)"><path
                 inkscape:connector-curvature="0"
                 id="path256"
                 style="fill:#0d8136;fill-opacity:1;fill-rule:nonzero;stroke:none"
                 d="m 0,0 10.542,-10.542 c 31.052,31.052 31.052,81.396 0,112.448 L 0,91.364 C 25.23,66.134 25.23,25.23 0,0" /></g></g></g><g
           id="g266"
           transform="translate(31.440892,102.6964)"><g
             style="opacity:0.89999402"
             id="g268"
             clip-path="url(#clipPath262)"><g
               id="g270"
               transform="translate(262.5001,385.8052)"><path
                 inkscape:connector-curvature="0"
                 id="path272"
                 style="fill:#d41417;fill-opacity:1;fill-rule:nonzero;stroke:none"
                 d="m 0,0 c -19.407,19.407 -19.407,50.872 0,70.28 l -10.542,10.542 c -25.23,-25.23 -25.23,-66.134 0,-91.364 L 0,0 Z" /></g><g
               id="g274"
               transform="translate(332.7798,456.0849)"><path
                 inkscape:connector-curvature="0"
                 id="path276"
                 style="fill:#ffe956;fill-opacity:1;fill-rule:nonzero;stroke:none"
                 d="m 0,0 0,0 10.542,10.542 c -25.23,25.23 -66.134,25.23 -91.364,0 L -70.28,0 C -50.872,19.407 -19.407,19.407 0,0" /></g><g
               id="g278"
               transform="translate(262.5002,385.8052)"><path
                 inkscape:connector-curvature="0"
                 id="path280"
                 style="fill:#233f92;fill-opacity:1;fill-rule:nonzero;stroke:none"
                 d="m 0,0 -10.542,-10.542 c 25.23,-25.23 66.134,-25.23 91.364,0 L 70.28,0 C 50.872,-19.407 19.408,-19.408 0,0" /></g><g
               id="g282"
               transform="translate(332.7798,385.8052)"><path
                 inkscape:connector-curvature="0"
                 id="path284"
                 style="fill:#0d8136;fill-opacity:1;fill-rule:nonzero;stroke:none"
                 d="m 0,0 10.542,-10.542 c 25.23,25.23 25.23,66.134 0,91.364 L 0,70.28 C 19.408,50.872 19.408,19.407 0,0" /></g></g></g><path
           inkscape:connector-curvature="0"
           id="path288"
           style="fill:#d41417;fill-opacity:1;fill-rule:nonzero;stroke:none"
           d="m 293.94099,558.78126 c -19.407,-19.408 -19.407,-50.872 0,-70.28 l 35.14,35.14 -35.14,35.14 z" /><path
           inkscape:connector-curvature="0"
           id="path292"
           style="fill:#ffe956;fill-opacity:1;fill-rule:nonzero;stroke:none"
           d="m 364.22069,558.78126 c -19.407,19.407 -50.872,19.407 -70.28,0 l 35.14,-35.14 35.14,35.14 z" /><path
           inkscape:connector-curvature="0"
           id="path296"
           style="fill:#233f92;fill-opacity:1;fill-rule:nonzero;stroke:none"
           d="m 293.94109,488.50146 c 19.408,-19.40795 50.872,-19.40695 70.28,0 l -35.14,35.14 -35.14,-35.14 z" /><path
           inkscape:connector-curvature="0"
           id="path300"
           style="fill:#0d8136;fill-opacity:1;fill-rule:nonzero;stroke:none"
           d="m 364.22069,488.50146 c 19.408,19.407 19.408,50.872 0,70.28 l -35.14,-35.14 35.14,-35.14 z" /></g><path
         sodipodi:nodetypes="cc"
         inkscape:connector-curvature="0"
         id="path4738"
         d="m 179.98429,664.50137 c 86.29781,77.74162 196.29467,75.58593 279.75193,-0.57503"
         style="fill:none;fill-rule:evenodd;stroke:#ffffff;stroke-width:0.80000001px;stroke-linecap:butt;stroke-linejoin:miter;stroke-opacity:1" /><text
         xml:space="preserve"
         style="font-style:normal;font-weight:normal;font-size:15px;line-height:125%;font-family:Sans;letter-spacing:0px;word-spacing:0px;fill:#000000;fill-opacity:1;stroke:none;stroke-width:1px;stroke-linecap:butt;stroke-linejoin:miter;stroke-opacity:1"
         id="text4859"
         sodipodi:linespacing="125%"
         x="87.752327"
         y="0"><textPath
           xlink:href="#path4863"
           id="textPath4865"
           style="font-style:normal;font-variant:normal;font-weight:normal;font-stretch:normal;font-size:40px;font-family:Arial;-inkscape-font-specification:Arial;text-align:start;text-anchor:start">Exitation</textPath></text>
<path
         style="fill:none;fill-rule:evenodd;stroke:#ffffff;stroke-width:1px;stroke-linecap:butt;stroke-linejoin:miter;stroke-opacity:1"
         d="m 179.45586,379.74701 c 89.04043,-81.43867 205.47588,-71.02039 281.58256,0.65256"
         id="path4863"
         inkscape:connector-curvature="0"
         sodipodi:nodetypes="cc" /><text
         y="0"
         x="87.752327"
         sodipodi:linespacing="125%"
         id="text4868"
         style="font-style:normal;font-weight:normal;font-size:15px;line-height:125%;font-family:Sans;letter-spacing:0px;word-spacing:0px;fill:#000000;fill-opacity:1;stroke:none;stroke-width:1px;stroke-linecap:butt;stroke-linejoin:miter;stroke-opacity:1"
         xml:space="preserve"
         transform="matrix(-0.01319935,0.99991288,-0.99991288,-0.01319935,846.93918,208.56254)"><textPath
           style="font-style:normal;font-variant:normal;font-weight:normal;font-stretch:normal;font-size:40px;font-family:Arial;-inkscape-font-specification:Arial;text-align:start;text-anchor:start"
           id="textPath4870"
           xlink:href="#path4863">Frustration</textPath></text>
<text
         transform="matrix(-0.99999111,0.00421548,-0.00421548,-0.99999111,642.80471,1043.9627)"
         xml:space="preserve"
         style="font-style:normal;font-weight:normal;font-size:15px;line-height:125%;font-family:Sans;letter-spacing:0px;word-spacing:0px;fill:#000000;fill-opacity:1;stroke:none;stroke-width:1px;stroke-linecap:butt;stroke-linejoin:miter;stroke-opacity:1"
         id="text4872"
         sodipodi:linespacing="125%"
         x="87.752327"
         y="0"><textPath
           xlink:href="#path4863"
           id="textPath4874"
           style="font-style:normal;font-variant:normal;font-weight:normal;font-stretch:normal;font-size:40px;font-family:Arial;-inkscape-font-specification:Arial;text-align:start;text-anchor:start">Méditation</textPath></text>
<text
         y="0"
         x="87.752327"
         sodipodi:linespacing="125%"
         id="text4876"
         style="font-style:normal;font-weight:normal;font-size:15px;line-height:125%;font-family:Sans;letter-spacing:0px;word-spacing:0px;fill:#000000;fill-opacity:1;stroke:none;stroke-width:1px;stroke-linecap:butt;stroke-linejoin:miter;stroke-opacity:1"
         xml:space="preserve"
         transform="matrix(0.01060863,-0.99994372,0.99994372,0.01060863,-206.34079,835.84977)"><textPath
           style="font-style:normal;font-variant:normal;font-weight:normal;font-stretch:normal;font-size:40px;font-family:Arial;-inkscape-font-specification:Arial;text-align:start;text-anchor:start"
           id="textPath4878"
           xlink:href="#path4863">Engagement</textPath></text>
</g></g><metadata
     id="metadata5260"><rdf:RDF><cc:Work
         rdf:about=""><dc:title></dc:title></cc:Work></rdf:RDF></metadata></svg>