<?xml version="1.0" encoding="UTF-8" standalone="no"?>
<!-- Generator: Adobe Illustrator 16.0.0, SVG Export Plug-In . SVG Version: 6.00 Build 0)  -->

<svg
   version="1.1"
   id="Layer_1"
   x="0px"
   y="0px"
   width="163.95"
   height="136.92859"
   viewBox="0 0 163.95 136.92859"
   enable-background="new 0 0 288.319 105.333"
   xml:space="preserve"
   sodipodi:docname="logo-paragrapheCentre.svg"
   inkscape:version="1.2 (dc2aedaf03, 2022-05-15)"
   inkscape:export-filename="../../../../../../home/samszo/logo-paragrapheModule.png"
   inkscape:export-xdpi="96"
   inkscape:export-ydpi="96"
   xmlns:inkscape="http://www.inkscape.org/namespaces/inkscape"
   xmlns:sodipodi="http://sodipodi.sourceforge.net/DTD/sodipodi-0.dtd"
   xmlns="http://www.w3.org/2000/svg"
   xmlns:svg="http://www.w3.org/2000/svg"><defs
   id="defs81" /><sodipodi:namedview
   id="namedview79"
   pagecolor="#ffffff"
   bordercolor="#666666"
   borderopacity="1.0"
   inkscape:showpageshadow="2"
   inkscape:pageopacity="0.0"
   inkscape:pagecheckerboard="0"
   inkscape:deskcolor="#d1d1d1"
   showgrid="false"
   inkscape:zoom="4.7543"
   inkscape:cx="80.874156"
   inkscape:cy="60.576741"
   inkscape:window-width="1920"
   inkscape:window-height="1011"
   inkscape:window-x="0"
   inkscape:window-y="0"
   inkscape:window-maximized="1"
   inkscape:current-layer="Layer_1"
   showborder="false" />














<rect
   style="opacity:0.998;fill:#ffffff;stroke-width:2;stroke-linecap:round;stroke-linejoin:round;stroke:none"
   id="rect546"
   width="163.69392"
   height="136.23686"
   x="-0.013145994"
   y="0.14789243" /><g
   id="g354"
   transform="matrix(0.78406231,0,0,0.78406231,39.885698,1.760997)"><circle
     cx="94.000999"
     cy="22.666"
     r="6.25"
     id="circle2" /><circle
     cx="47.000999"
     cy="22.666"
     r="6.25"
     id="circle4" /><rect
     x="47.000999"
     y="22.666"
     fill="none"
     stroke="#000000"
     stroke-miterlimit="10"
     width="47"
     height="47"
     id="rect6" /><rect
     x="23.500999"
     y="47.666"
     fill="none"
     stroke="#000000"
     stroke-miterlimit="10"
     width="47"
     height="47"
     id="rect8" /><rect
     x="13.001"
     y="10.166"
     fill="none"
     stroke="#c2000b"
     stroke-miterlimit="10"
     width="47"
     height="47"
     id="rect10" /><circle
     cx="94.000999"
     cy="69.666"
     r="6.25"
     id="circle12" /><circle
     cx="47.000999"
     cy="69.666"
     r="6.25"
     id="circle14" /><circle
     cx="70.500999"
     cy="47.666"
     r="6.25"
     id="circle16" /><circle
     cx="70.500999"
     cy="94.666"
     r="6.25"
     id="circle18" /><circle
     cx="23.500999"
     cy="94.666"
     r="6.25"
     id="circle20" /><circle
     cx="23.500999"
     cy="47.666"
     r="6.25"
     id="circle22" /><circle
     fill="#c2000b"
     cx="13.001"
     cy="10.166"
     r="6.25"
     id="circle24" /><circle
     fill="#c2000b"
     cx="60.000999"
     cy="10.166"
     r="6.25"
     id="circle26" /><circle
     fill="#c2000b"
     cx="59.500999"
     cy="57.166"
     r="6.25"
     id="circle28" /><circle
     fill="#c2000b"
     cx="13.001"
     cy="57.166"
     r="6.25"
     id="circle30" /></g>

<g
   id="g433"
   transform="matrix(0.78406231,0,0,0.78406231,-72.752693,59.691122)"><g
     id="g54">
	<path
   fill="#c2000b"
   d="M 115.33,45.666 V 33.497 h 1.32 V 44.23 h 4.914 v 1.436 z"
   id="path32" />
	<path
   fill="#c2000b"
   d="m 128.768,45.666 3.849,-12.169 h 1.411 l 4.087,12.169 h -1.511 l -1.161,-3.686 h -4.198 l -1.084,3.686 z m 2.863,-4.997 h 3.398 l -1.037,-3.37 c -0.32,-1.035 -0.556,-1.876 -0.705,-2.523 -0.129,0.78 -0.311,1.555 -0.547,2.324 z"
   id="path34" />
	<path
   fill="#c2000b"
   d="M 145.809,45.666 V 33.497 h 3.748 c 0.759,0 1.36,0.118 1.804,0.353 0.442,0.235 0.806,0.602 1.088,1.099 0.283,0.498 0.425,1.048 0.425,1.65 0,0.559 -0.122,1.062 -0.366,1.51 -0.243,0.448 -0.586,0.808 -1.029,1.079 0.579,0.21 1.035,0.569 1.368,1.076 0.333,0.506 0.5,1.131 0.5,1.873 0,0.737 -0.15,1.383 -0.452,1.939 -0.302,0.557 -0.704,0.961 -1.208,1.213 -0.504,0.252 -1.195,0.378 -2.075,0.378 h -3.803 z m 1.32,-7.056 h 2.162 c 0.565,0 0.967,-0.039 1.206,-0.116 0.343,-0.116 0.608,-0.312 0.794,-0.585 0.186,-0.274 0.278,-0.646 0.278,-1.117 0,-0.437 -0.085,-0.801 -0.254,-1.091 -0.169,-0.291 -0.394,-0.491 -0.673,-0.602 -0.28,-0.111 -0.783,-0.166 -1.51,-0.166 h -2.004 v 3.677 z m 0,5.62 h 2.485 c 0.549,0 0.954,-0.05 1.215,-0.149 0.376,-0.144 0.663,-0.38 0.86,-0.709 0.196,-0.33 0.295,-0.743 0.295,-1.241 0,-0.459 -0.095,-0.848 -0.283,-1.166 -0.188,-0.318 -0.441,-0.551 -0.761,-0.697 -0.318,-0.147 -0.818,-0.22 -1.501,-0.22 h -2.311 v 4.182 z"
   id="path36" />
	<path
   fill="#c2000b"
   d="m 161.48,39.739 c 0,-2.075 0.457,-3.67 1.37,-4.785 0.913,-1.115 2.05,-1.673 3.411,-1.673 0.881,0 1.683,0.249 2.408,0.747 0.725,0.498 1.299,1.222 1.722,2.171 0.424,0.949 0.636,2.079 0.636,3.391 0,1.804 -0.41,3.273 -1.229,4.408 -0.902,1.25 -2.084,1.876 -3.545,1.876 -1.472,0 -2.656,-0.642 -3.553,-1.926 -0.813,-1.162 -1.22,-2.565 -1.22,-4.209 z m 1.361,0.021 c 0,1.501 0.331,2.666 0.992,3.493 0.661,0.828 1.465,1.242 2.412,1.242 0.968,0 1.78,-0.418 2.436,-1.254 0.656,-0.836 0.984,-2.066 0.984,-3.688 0,-1.047 -0.169,-1.983 -0.507,-2.808 -0.26,-0.631 -0.651,-1.137 -1.175,-1.516 -0.522,-0.379 -1.094,-0.569 -1.714,-0.569 -0.996,0 -1.816,0.416 -2.461,1.246 -0.643,0.83 -0.967,2.115 -0.967,3.854 z"
   id="path38" />
	<path
   fill="#c2000b"
   d="M 179.392,45.666 V 33.497 h 4.425 c 0.924,0 1.606,0.113 2.046,0.34 0.44,0.227 0.801,0.604 1.084,1.132 0.281,0.528 0.423,1.141 0.423,1.837 0,0.918 -0.239,1.662 -0.718,2.231 -0.479,0.569 -1.175,0.932 -2.088,1.086 0.371,0.223 0.653,0.448 0.847,0.677 0.393,0.465 0.739,0.982 1.038,1.552 l 1.742,3.312 h -1.66 l -1.33,-2.53 c -0.516,-0.99 -0.905,-1.657 -1.167,-2 -0.263,-0.344 -0.518,-0.575 -0.764,-0.694 -0.245,-0.119 -0.59,-0.179 -1.032,-0.179 h -1.525 v 5.404 h -1.321 z m 1.32,-6.798 h 2.839 c 0.62,0 1.09,-0.075 1.411,-0.224 0.321,-0.149 0.575,-0.385 0.764,-0.706 0.189,-0.321 0.282,-0.694 0.282,-1.121 0,-0.614 -0.18,-1.097 -0.54,-1.448 -0.359,-0.352 -0.894,-0.527 -1.602,-0.527 h -3.154 z"
   id="path40" />
	<path
   fill="#c2000b"
   d="m 195.064,45.666 3.849,-12.169 h 1.411 l 4.087,12.169 H 202.9 l -1.161,-3.686 h -4.198 l -1.084,3.686 z m 2.863,-4.997 h 3.398 l -1.037,-3.37 c -0.32,-1.035 -0.556,-1.876 -0.705,-2.523 -0.129,0.78 -0.311,1.555 -0.547,2.324 z"
   id="path42" />
	<path
   fill="#c2000b"
   d="M 213.69,45.666 V 34.933 h -3.287 v -1.436 h 7.911 v 1.436 h -3.305 v 10.733 z"
   id="path44" />
	<path
   fill="#c2000b"
   d="m 225.733,39.739 c 0,-2.075 0.457,-3.67 1.37,-4.785 0.913,-1.115 2.05,-1.673 3.411,-1.673 0.881,0 1.683,0.249 2.408,0.747 0.725,0.498 1.299,1.222 1.722,2.171 0.424,0.949 0.636,2.079 0.636,3.391 0,1.804 -0.41,3.273 -1.229,4.408 -0.902,1.25 -2.084,1.876 -3.545,1.876 -1.472,0 -2.656,-0.642 -3.553,-1.926 -0.813,-1.162 -1.22,-2.565 -1.22,-4.209 z m 1.361,0.021 c 0,1.501 0.331,2.666 0.992,3.493 0.661,0.828 1.465,1.242 2.412,1.242 0.968,0 1.78,-0.418 2.436,-1.254 0.656,-0.836 0.984,-2.066 0.984,-3.688 0,-1.047 -0.169,-1.983 -0.507,-2.808 -0.26,-0.631 -0.651,-1.137 -1.175,-1.516 -0.522,-0.379 -1.094,-0.569 -1.714,-0.569 -0.996,0 -1.816,0.416 -2.461,1.246 -0.644,0.83 -0.967,2.115 -0.967,3.854 z"
   id="path46" />
	<path
   fill="#c2000b"
   d="M 243.904,45.666 V 33.497 h 1.32 v 12.169 z"
   id="path48" />
	<path
   fill="#c2000b"
   d="M 254.22,45.666 V 33.497 h 4.425 c 0.924,0 1.606,0.113 2.046,0.34 0.44,0.227 0.801,0.604 1.084,1.132 0.281,0.528 0.423,1.141 0.423,1.837 0,0.918 -0.239,1.662 -0.718,2.231 -0.479,0.569 -1.175,0.932 -2.088,1.086 0.371,0.223 0.653,0.448 0.847,0.677 0.393,0.465 0.739,0.982 1.038,1.552 l 1.742,3.312 h -1.66 l -1.33,-2.53 c -0.516,-0.99 -0.905,-1.657 -1.167,-2 -0.263,-0.344 -0.518,-0.575 -0.764,-0.694 -0.245,-0.119 -0.59,-0.179 -1.032,-0.179 h -1.525 v 5.404 h -1.321 z m 1.321,-6.798 h 2.839 c 0.62,0 1.09,-0.075 1.411,-0.224 0.321,-0.149 0.575,-0.385 0.764,-0.706 0.189,-0.321 0.282,-0.694 0.282,-1.121 0,-0.614 -0.18,-1.097 -0.54,-1.448 -0.359,-0.352 -0.894,-0.527 -1.602,-0.527 h -3.154 z"
   id="path50" />
	<path
   fill="#c2000b"
   d="M 271.011,45.666 V 33.497 h 7.214 v 1.436 h -5.894 v 3.719 h 5.52 v 1.436 h -5.52 v 4.142 h 6.126 v 1.436 z"
   id="path52" />
</g><g
     id="g76">
	<path
   d="m 115.186,66.667 v -17.18 h 6.48 c 1.141,0 2.012,0.055 2.613,0.164 0.844,0.141 1.551,0.408 2.121,0.803 0.57,0.395 1.029,0.947 1.377,1.658 0.348,0.711 0.521,1.492 0.521,2.344 0,1.461 -0.465,2.697 -1.395,3.709 -0.93,1.012 -2.609,1.518 -5.039,1.518 h -4.406 v 6.984 z m 2.273,-9.011 h 4.441 c 1.469,0 2.512,-0.273 3.129,-0.82 0.617,-0.547 0.926,-1.316 0.926,-2.309 0,-0.719 -0.182,-1.334 -0.545,-1.846 -0.363,-0.512 -0.842,-0.85 -1.436,-1.014 -0.383,-0.102 -1.09,-0.152 -2.121,-0.152 h -4.395 v 6.141 z"
   id="path56" />
	<path
   d="m 127.766,66.667 6.598,-17.18 h 2.449 l 7.031,17.18 h -2.59 l -2.004,-5.203 h -7.184 l -1.887,5.203 z m 4.957,-7.054 h 5.824 l -1.793,-4.758 c -0.547,-1.445 -0.953,-2.633 -1.219,-3.562 -0.219,1.102 -0.527,2.195 -0.926,3.281 z"
   id="path58" />
	<path
   d="m 145.936,66.667 v -17.18 h 7.617 c 1.531,0 2.695,0.154 3.492,0.463 0.797,0.309 1.434,0.854 1.91,1.635 0.476,0.781 0.715,1.645 0.715,2.59 0,1.219 -0.395,2.246 -1.184,3.082 -0.789,0.836 -2.008,1.367 -3.656,1.594 0.602,0.289 1.059,0.574 1.371,0.855 0.664,0.609 1.293,1.371 1.887,2.285 l 2.988,4.676 h -2.859 l -2.273,-3.574 c -0.664,-1.031 -1.211,-1.82 -1.641,-2.367 -0.43,-0.547 -0.814,-0.93 -1.154,-1.148 -0.34,-0.218 -0.686,-0.371 -1.037,-0.457 -0.258,-0.055 -0.68,-0.082 -1.266,-0.082 h -2.637 v 7.629 h -2.273 z m 2.273,-9.597 h 4.887 c 1.039,0 1.852,-0.107 2.438,-0.322 0.586,-0.215 1.031,-0.559 1.336,-1.031 0.305,-0.472 0.457,-0.986 0.457,-1.541 0,-0.812 -0.295,-1.48 -0.885,-2.004 -0.59,-0.524 -1.521,-0.785 -2.795,-0.785 h -5.438 z"
   id="path60" />
	<path
   d="m 161.585,66.667 6.598,-17.18 h 2.449 l 7.031,17.18 h -2.59 l -2.004,-5.203 h -7.184 L 164,66.667 Z m 4.957,-7.054 h 5.824 l -1.793,-4.758 c -0.547,-1.445 -0.953,-2.633 -1.219,-3.562 -0.219,1.102 -0.527,2.195 -0.926,3.281 z"
   id="path62" />
	<path
   d="m 187.759,59.929 v -2.016 l 7.277,-0.012 v 6.375 c -1.117,0.891 -2.27,1.561 -3.457,2.01 -1.187,0.449 -2.406,0.674 -3.656,0.674 -1.688,0 -3.221,-0.361 -4.6,-1.084 -1.379,-0.723 -2.42,-1.768 -3.123,-3.135 -0.703,-1.367 -1.055,-2.895 -1.055,-4.582 0,-1.672 0.35,-3.232 1.049,-4.682 0.699,-1.45 1.705,-2.525 3.018,-3.229 1.313,-0.704 2.824,-1.055 4.535,-1.055 1.242,0 2.365,0.201 3.369,0.604 1.004,0.403 1.791,0.963 2.361,1.682 0.57,0.719 1.004,1.656 1.301,2.812 l -2.051,0.562 c -0.258,-0.875 -0.578,-1.562 -0.961,-2.062 -0.383,-0.5 -0.93,-0.9 -1.641,-1.201 -0.711,-0.301 -1.5,-0.451 -2.367,-0.451 -1.039,0 -1.938,0.158 -2.695,0.475 -0.757,0.317 -1.369,0.732 -1.834,1.248 -0.465,0.516 -0.826,1.082 -1.084,1.699 -0.438,1.062 -0.656,2.215 -0.656,3.457 0,1.531 0.264,2.812 0.791,3.844 0.527,1.032 1.295,1.797 2.303,2.297 1.008,0.5 2.078,0.75 3.211,0.75 0.984,0 1.945,-0.189 2.883,-0.568 0.938,-0.379 1.648,-0.783 2.133,-1.213 v -3.199 z"
   id="path64" />
	<path
   d="m 198.664,66.667 v -17.18 h 7.617 c 1.531,0 2.695,0.154 3.492,0.463 0.797,0.309 1.434,0.854 1.91,1.635 0.476,0.781 0.715,1.645 0.715,2.59 0,1.219 -0.395,2.246 -1.184,3.082 -0.789,0.836 -2.008,1.367 -3.656,1.594 0.602,0.289 1.059,0.574 1.371,0.855 0.664,0.609 1.293,1.371 1.887,2.285 l 2.988,4.676 h -2.859 l -2.273,-3.574 c -0.664,-1.031 -1.211,-1.82 -1.641,-2.367 -0.43,-0.547 -0.814,-0.93 -1.154,-1.148 -0.34,-0.218 -0.686,-0.371 -1.037,-0.457 -0.258,-0.055 -0.68,-0.082 -1.266,-0.082 h -2.637 v 7.629 h -2.273 z m 2.273,-9.597 h 4.887 c 1.039,0 1.852,-0.107 2.438,-0.322 0.586,-0.215 1.031,-0.559 1.336,-1.031 0.305,-0.472 0.457,-0.986 0.457,-1.541 0,-0.812 -0.295,-1.48 -0.885,-2.004 -0.59,-0.524 -1.521,-0.785 -2.795,-0.785 h -5.438 z"
   id="path66" />
	<path
   d="m 214.314,66.667 6.598,-17.18 h 2.449 l 7.031,17.18 h -2.59 l -2.004,-5.203 h -7.184 l -1.887,5.203 z m 4.957,-7.054 h 5.824 l -1.793,-4.758 c -0.547,-1.445 -0.953,-2.633 -1.219,-3.562 -0.219,1.102 -0.527,2.195 -0.926,3.281 z"
   id="path68" />
	<path
   d="m 232.448,66.667 v -17.18 h 6.48 c 1.141,0 2.012,0.055 2.613,0.164 0.844,0.141 1.551,0.408 2.121,0.803 0.57,0.395 1.029,0.947 1.377,1.658 0.348,0.711 0.521,1.492 0.521,2.344 0,1.461 -0.465,2.697 -1.395,3.709 -0.93,1.012 -2.609,1.518 -5.039,1.518 h -4.406 v 6.984 z m 2.273,-9.011 h 4.441 c 1.469,0 2.512,-0.273 3.129,-0.82 0.617,-0.547 0.926,-1.316 0.926,-2.309 0,-0.719 -0.182,-1.334 -0.545,-1.846 -0.363,-0.512 -0.842,-0.85 -1.436,-1.014 -0.383,-0.102 -1.09,-0.152 -2.121,-0.152 h -4.395 v 6.141 z"
   id="path70" />
	<path
   d="m 248.766,66.667 v -17.18 h 2.273 v 7.055 h 8.93 v -7.055 h 2.273 v 17.18 h -2.273 V 58.57 h -8.93 v 8.098 h -2.273 z"
   id="path72" />
	<path
   d="m 266.315,66.667 v -17.18 h 12.422 v 2.027 h -10.148 v 5.262 h 9.504 v 2.016 h -9.504 v 5.848 h 10.547 v 2.027 z"
   id="path74" />
</g></g>
</svg>
